<svg width="211" height="155" viewBox="0 0 211 155" fill="none" xmlns="http://www.w3.org/2000/svg">
<g clip-path="url(#clip0_81_4186)">
<path d="M70.4624 150.587C64.052 150.587 57.6513 150.487 51.26 150.288C42.1278 150.004 32.6846 149.71 23.9075 145.488C17.7675 142.534 12.3296 137.796 8.18183 131.785C5.44545 127.788 3.40758 123.357 2.1549 118.68C1.5421 116.43 1.09741 114.137 0.82449 111.821C0.0770966 105.565 0.606674 99.2221 2.38127 93.1757C3.24306 90.2824 4.4173 87.4913 5.88329 84.8515C12.2841 73.3556 23.9587 65.6387 37.9136 63.6797C38.029 63.6667 38.1454 63.6646 38.2612 63.6733C38.324 63.6762 38.3865 63.6793 38.4503 63.677L38.5324 63.6544C38.744 63.5906 38.9601 63.5426 39.1788 63.5105C60.701 60.7316 83.4532 66.3543 104.974 79.7701C121.614 90.1446 143.666 95.7311 172.391 96.8489L172.799 96.8674C180.796 97.2658 188.53 100.125 195.169 105.136C201.655 109.994 206.596 116.622 209.395 124.221C209.734 125.14 210.044 126.097 210.318 127.065C210.836 128.895 210.235 130.744 208.669 132.152V132.154L208.597 132.218C208.425 132.366 208.244 132.508 208.059 132.641L207.841 132.797C206.005 134.108 204.555 135.144 202.82 135.949C201.649 136.487 200.42 136.889 199.157 137.148C192.157 138.629 185.048 140.001 178.029 141.227C164.396 143.611 150.404 145.578 136.441 147.073C114.527 149.415 92.5023 150.588 70.4624 150.587ZM38.098 64.0804C38.0552 64.0801 38.0124 64.0826 37.9699 64.088C24.1453 66.0287 12.5813 73.6698 6.24395 85.0519C4.79243 87.6655 3.62981 90.429 2.77658 93.2936C1.01807 99.2862 0.493431 105.572 1.23431 111.773C1.50483 114.068 1.94562 116.341 2.55303 118.571C3.79345 123.204 5.81157 127.593 8.52154 131.551C12.6287 137.503 18.011 142.194 24.0866 145.116C32.7849 149.3 42.1836 149.593 51.2729 149.876C79.6879 150.758 108.13 149.684 136.397 146.663C150.351 145.169 164.334 143.204 177.958 140.821C184.973 139.596 192.076 138.225 199.072 136.745C200.304 136.492 201.503 136.1 202.646 135.575C204.347 134.787 205.783 133.761 207.601 132.462L207.819 132.306C207.978 132.192 208.134 132.07 208.284 131.943L208.327 131.904C209.821 130.598 210.402 128.875 209.921 127.177C209.65 126.219 209.343 125.273 209.008 124.363C203.38 108.962 188.821 98.0781 172.779 97.2791L172.374 97.2605C159.252 96.7499 147.77 95.3353 137.273 92.9356C124.741 90.0712 113.801 85.7592 104.755 80.1196C83.3167 66.7552 60.6596 61.1535 39.2313 63.9192C39.0321 63.9489 38.8353 63.9931 38.6425 64.0516L38.4945 64.0875C38.4093 64.092 38.3257 64.0886 38.2423 64.0849C38.1928 64.0826 38.1448 64.0804 38.098 64.0804Z" fill="#F0F0F0"/>
<path d="M208.463 132.059V132.061C208.296 132.206 208.12 132.344 207.939 132.474C204.91 134.639 202.84 136.158 199.114 136.947C192.099 138.43 185.059 139.789 177.993 141.024C164.209 143.435 150.351 145.383 136.42 146.868C108.143 149.895 79.6912 150.969 51.2667 150.082C41.8007 149.787 32.671 149.474 23.9972 145.302C17.657 142.252 12.3297 137.433 8.35188 131.668C4.3183 125.822 1.86515 118.906 1.02954 111.797C2.9936 110.941 5.08023 110.399 7.21299 110.19C14.6158 109.485 21.901 112.193 28.6332 115.343C35.3676 118.491 41.9802 122.171 49.2715 123.624C60.0168 125.765 71.1086 122.853 81.4102 119.126C91.7118 115.399 101.852 110.796 112.717 109.388C127.29 107.499 141.912 111.498 156.061 115.459C171.133 119.676 186.206 123.895 201.279 128.114C203.433 128.715 205.667 129.36 207.347 130.836C207.763 131.201 208.137 131.611 208.463 132.059Z" fill="#E6E6E6"/>
<path d="M208.463 132.059V132.061C208.296 132.206 208.12 132.344 207.939 132.474C206.041 133.829 204.52 134.934 202.733 135.762C196.591 136.366 190.441 136.888 184.282 137.33C168.43 138.465 152.548 139.069 136.634 139.141C104.351 139.306 70.4092 140.316 42.1432 124.656C32.7379 119.446 19.1136 130.131 9.79616 124.417C7.11042 122.765 4.61476 120.823 2.35416 118.625C1.74363 116.385 1.30087 114.103 1.02957 111.797C0.281616 105.569 0.808772 99.2534 2.57904 93.2346C3.43551 90.3553 4.60402 87.5779 6.06381 84.9517C10.3924 86.5032 14.5436 88.7367 18.4947 91.1021C25.7407 95.4351 32.7865 100.355 40.8557 102.836C52.7502 106.493 65.6184 104.483 77.6882 101.458C89.758 98.4331 101.747 94.4029 114.186 94.0629C130.87 93.6075 146.928 99.8115 162.457 105.917C178.037 112.042 193.618 118.167 209.201 124.292C209.544 125.221 209.85 126.164 210.12 127.12C210.67 129.066 209.872 130.827 208.463 132.059Z" fill="#F2F2F2"/>
<path d="M56.5624 52.9587C54.216 51.379 54.4455 47.9227 56.9268 46.5642C56.9773 46.5366 57.0268 46.508 57.0754 46.4784C57.1997 45.8837 57.3241 45.2889 57.4484 44.6942C58.1804 45.4534 59.6199 45.3101 60.1873 44.4215C58.2086 40.2063 55.6066 36.3122 52.4685 32.8696C51.7845 32.1154 51.4007 31.1372 51.3896 30.1197C51.3786 29.1022 51.7411 28.116 52.4086 27.3472C52.4206 27.3332 52.4325 27.3192 52.4443 27.305C54.2163 26.7073 55.8943 25.8611 57.4278 24.7918C52.1687 16.3536 42.1403 9.64994 39.7567 0C32.5856 7.69049 31.7806 10.399 24.6096 18.0895C24.6096 18.0895 17.8194 24.2084 16.3538 27.4968C16.7139 27.8746 19.9379 28.7811 20.0619 29.5238C22.5205 29.7207 26.7801 27.0294 26.7801 27.0294C26.7801 27.0294 17.4829 36.9279 14.6602 43.0249C14.406 43.5739 14.1646 44.2009 14.3775 44.7671C14.5475 45.2192 15.1574 45.4799 15.5502 45.3003C15.081 45.7522 14.7042 46.291 14.4409 46.8866C15.26 47.4089 16.2316 47.6402 17.1986 47.5429C18.1655 47.4456 19.0714 47.0256 19.7698 46.3506C19.3766 47.0842 18.9834 47.8177 18.5903 48.5513L18.591 48.553C19.1221 48.7263 19.5988 49.035 19.9739 49.4487C20.349 49.8623 20.6096 50.3665 20.7298 50.9115C20.8501 51.4565 20.8259 52.0234 20.6596 52.5561C20.4933 53.0889 20.1907 53.5691 19.7817 53.9493C17.3419 56.2154 15.1126 58.5973 14.2957 60.1659C13.5272 61.6416 21.4177 63.4204 23.1925 63.3474C24.9673 63.2745 26.6262 62.4957 28.2291 61.7314C28.151 62.4613 28.2908 63.198 28.6309 63.8487C29.5088 64.0615 30.4203 64.0969 31.3121 63.9529C32.2038 63.809 33.0578 63.4885 33.8238 63.0103C33.753 64.4701 35.5969 65.2762 36.8767 64.8628C36.2378 74.9569 36.7051 89.1313 37.319 103.846H38.8419V65.4447C39.2472 65.6498 39.6807 65.7937 40.1282 65.8717C43.2441 66.4241 47.0041 66.7599 49.0316 64.3335C51.3652 66.6833 55.6415 66.6387 57.9616 64.2971C57.7333 64.701 58.0827 65.3809 58.5997 65.488C59.209 65.6142 59.8017 65.2527 60.319 64.9074C62.6606 63.3439 65.0023 61.7805 67.344 60.2171C64.4543 58.2717 60.3493 55.5082 56.5624 52.9587Z" fill="#E6E6E6"/>
<path d="M126.856 48.261C130.917 48.261 134.209 44.9733 134.209 40.9176C134.209 36.862 130.917 33.5742 126.856 33.5742C122.795 33.5742 119.502 36.862 119.502 40.9176C119.502 44.9733 122.795 48.261 126.856 48.261Z" fill="#F2F2F2"/>
<path d="M143.314 37.4409C142.889 36.0183 141.687 35.0895 140.235 34.8857C140.22 34.8835 140.204 34.8865 140.188 34.8854C140.168 34.8792 140.147 34.8743 140.126 34.871C138.069 34.6207 135.988 35.0731 134.222 36.1544C132.52 37.2156 130.537 37.6955 128.532 37.7735C128.52 37.7739 128.508 37.7744 128.496 37.775C127.751 37.8246 127.039 38.1024 126.458 38.5704C125.876 39.0385 125.453 39.6742 125.246 40.3909C125.224 40.4786 125.231 40.5711 125.265 40.6548C125.299 40.7386 125.359 40.8093 125.436 40.8568C125.658 41.0447 125.921 41.1781 126.205 41.2462C126.815 41.3754 127.428 41.4938 128.043 41.6013C129.243 41.811 130.45 41.9806 131.662 42.11C134.124 42.3735 136.601 42.467 139.076 42.3898C139.9 42.3642 140.694 42.3369 141.45 41.9736C141.999 41.7027 142.468 41.2936 142.812 40.7868C143.135 40.2996 143.347 39.7475 143.434 39.1695C143.521 38.5915 143.48 38.0015 143.314 37.4409Z" fill="#E6E6E6"/>
<path d="M128.031 47.2322C127.606 45.8095 126.404 44.8808 124.952 44.677C124.936 44.6748 124.921 44.6777 124.905 44.6767C124.885 44.6704 124.864 44.6656 124.842 44.6623C122.786 44.412 120.705 44.8643 118.938 45.9457C117.236 47.0068 115.254 47.4868 113.249 47.5647C113.237 47.5652 113.225 47.5657 113.213 47.5663C112.468 47.6159 111.756 47.8936 111.174 48.3617C110.593 48.8298 110.17 49.4654 109.963 50.1822C109.941 50.2699 109.948 50.3623 109.982 50.4461C110.016 50.5299 110.076 50.6006 110.153 50.648C110.375 50.836 110.638 50.9694 110.921 51.0375C111.532 51.1667 112.145 51.285 112.76 51.3926C113.96 51.6023 115.167 51.7719 116.379 51.9013C118.841 52.1647 121.318 52.2582 123.792 52.1811C124.616 52.1555 125.411 52.1281 126.166 51.7649C126.716 51.4939 127.185 51.0849 127.528 50.578C127.852 50.0908 128.064 49.5388 128.151 48.9607C128.238 48.3827 128.197 47.7927 128.031 47.2322Z" fill="#E6E6E6"/>
<path d="M190.258 77.8898C187.912 76.3102 188.142 72.8538 190.623 71.4953C190.673 71.4677 190.723 71.4391 190.771 71.4096C190.896 70.8148 191.02 70.2201 191.144 69.6253C191.876 70.3846 193.316 70.2413 193.883 69.3526C191.905 65.1375 189.303 61.2433 186.165 57.8007C185.48 57.0466 185.097 56.0684 185.086 55.0509C185.075 54.0334 185.437 53.0471 186.105 52.2783C186.117 52.2644 186.129 52.2503 186.14 52.2361C187.912 51.6385 189.59 50.7923 191.124 49.723C185.865 41.2847 175.836 34.5811 173.453 24.9312C166.282 32.6216 165.477 35.3302 158.306 43.0207C158.306 43.0207 151.515 49.1396 150.05 52.428C150.41 52.8057 153.634 53.7122 153.758 54.455C156.217 54.6518 160.476 51.9605 160.476 51.9605C160.476 51.9605 151.179 61.859 148.356 67.9561C148.102 68.5051 147.861 69.132 148.074 69.6983C148.244 70.1504 148.853 70.4111 149.246 70.2314C148.777 70.6834 148.4 71.2222 148.137 71.8177C148.956 72.3401 149.928 72.5713 150.895 72.474C151.862 72.3768 152.767 71.9567 153.466 71.2818C153.073 72.0153 152.679 72.7489 152.286 73.4824L152.287 73.4841C152.818 73.6575 153.295 73.9662 153.67 74.3798C154.045 74.7935 154.306 75.2977 154.426 75.8427C154.546 76.3876 154.522 76.9545 154.356 77.4873C154.189 78.02 153.887 78.5003 153.478 78.8805C151.038 81.1466 148.809 83.5285 147.992 85.0971C147.223 86.5727 155.114 88.3515 156.889 88.2786C158.663 88.2056 160.322 87.4269 161.925 86.6625C161.847 87.3925 161.987 88.1291 162.327 88.7799C163.205 88.9926 164.116 89.0281 165.008 88.8841C165.9 88.7401 166.754 88.4197 167.52 87.9415C167.449 89.4013 169.293 90.2073 170.573 89.7939C169.934 99.8881 170.401 114.062 171.015 128.777H172.538V90.3759C172.943 90.581 173.377 90.7249 173.824 90.8029C176.94 91.3553 180.7 91.6911 182.728 89.2646C185.061 91.6145 189.338 91.5698 191.658 89.2282C191.429 89.6322 191.779 90.312 192.296 90.4192C192.905 90.5454 193.498 90.1839 194.015 89.8385C196.357 88.2751 198.698 86.7117 201.04 85.1482C198.15 83.2029 194.045 80.4393 190.258 77.8898Z" fill="#E6E6E6"/>
<path d="M13.4922 117.036C13.6448 117.043 13.796 117.003 13.9252 116.922C14.0543 116.84 14.1552 116.721 14.2142 116.58C14.2731 116.439 14.2873 116.283 14.2548 116.134C14.2223 115.985 14.1447 115.85 14.0324 115.746C14.0136 115.671 14.0002 115.618 13.9814 115.543C13.9881 115.527 13.9948 115.511 14.0017 115.494C14.1555 115.132 14.4132 114.822 14.7426 114.605C15.0719 114.388 15.4581 114.273 15.8526 114.275C16.2472 114.276 16.6325 114.394 16.9602 114.613C17.2879 114.833 17.5434 115.144 17.6945 115.508C18.2985 116.961 19.0674 118.416 19.2568 119.952C19.3402 120.631 19.305 121.319 19.1528 121.986C20.5714 118.896 21.308 115.537 21.3128 112.138C21.3131 111.284 21.2656 110.432 21.1706 109.584C21.0921 108.889 20.9832 108.199 20.8439 107.514C20.0835 103.797 18.4511 100.313 16.0805 97.3476C14.9332 96.7224 14.0053 95.761 13.422 94.593C13.2106 94.1731 13.0613 93.7249 12.9785 93.2623C13.1079 93.2793 13.2395 93.2899 13.3689 93.2983C13.4092 93.3004 13.4517 93.3026 13.492 93.3047L13.5072 93.3054C13.6494 93.3117 13.7905 93.2769 13.9134 93.2051C14.0363 93.1333 14.1357 93.0275 14.1998 92.9005C14.2639 92.7736 14.2899 92.6308 14.2746 92.4894C14.2594 92.348 14.2035 92.2141 14.1138 92.1037C14.0579 92.035 14.002 91.9663 13.946 91.8977C13.8612 91.7918 13.7742 91.688 13.6893 91.582C13.6795 91.572 13.6703 91.5613 13.6617 91.5502C13.5641 91.4294 13.4665 91.3108 13.3689 91.19C13.5471 90.9139 13.7867 90.6825 14.0691 90.5141C15.0472 89.942 16.3967 90.3382 17.1032 91.2218C17.8119 92.1054 17.9456 93.345 17.6994 94.4489C17.4574 95.3883 17.057 96.2796 16.5155 97.0848C16.5685 97.1526 16.6237 97.2183 16.6768 97.2861C17.6464 98.5313 18.4915 99.8684 19.2 101.278C19.0277 99.6988 19.2333 98.1011 19.8 96.6165C20.3743 95.233 21.4507 94.0678 22.3986 92.8717C23.5372 91.435 25.872 92.062 26.0726 93.8832C26.0745 93.9009 26.0764 93.9185 26.0783 93.9361C25.9375 94.0154 25.7997 94.0996 25.6648 94.1887C25.4954 94.3017 25.3641 94.4632 25.2882 94.652C25.2123 94.8408 25.1952 95.0481 25.2393 95.2468C25.2834 95.4454 25.3865 95.6262 25.5352 95.7653C25.6838 95.9044 25.8711 95.9954 26.0725 96.0264L26.0931 96.0296C26.043 96.5363 25.9543 97.0386 25.8279 97.5319C25.4616 98.9091 24.8144 100.196 23.9268 101.312C23.0393 102.427 21.9304 103.348 20.6699 104.016C20.5871 104.058 20.5065 104.101 20.4238 104.141C20.8035 105.209 21.1069 106.303 21.3319 107.414C21.5331 108.394 21.6734 109.386 21.752 110.383C21.8482 111.639 21.8425 112.901 21.735 114.157L21.7414 114.112C22.013 112.716 22.7587 111.457 23.8525 110.546C25.4772 109.213 27.7725 108.723 29.5252 107.651C29.7115 107.532 29.9281 107.468 30.1494 107.468C30.3708 107.467 30.5877 107.53 30.7745 107.648C30.9614 107.767 31.1104 107.936 31.204 108.137C31.2976 108.337 31.3319 108.56 31.3028 108.779C31.3005 108.794 31.2981 108.81 31.2957 108.826C31.0344 108.932 30.78 109.054 30.5339 109.192C30.3932 109.272 30.2553 109.356 30.1205 109.445C29.9511 109.558 29.8198 109.719 29.7439 109.908C29.668 110.097 29.6509 110.304 29.695 110.503C29.7391 110.702 29.8422 110.882 29.9909 111.021C30.1395 111.161 30.3268 111.252 30.5282 111.283L30.5488 111.286C30.5637 111.288 30.5764 111.29 30.5912 111.292C30.1448 112.357 29.5182 113.336 28.7389 114.189C27.7763 115.22 26.6127 116.045 25.3197 116.611C24.0267 117.178 22.6314 117.475 21.2194 117.484H21.2173C20.834 119.147 20.2786 120.766 19.5602 122.315H13.6405C13.6193 122.249 13.6002 122.181 13.5811 122.115C14.129 122.15 14.6791 122.117 15.2191 122.018C14.7799 121.48 14.3407 120.937 13.9015 120.399C13.8917 120.389 13.8825 120.378 13.8739 120.367C13.6511 120.092 13.4262 119.819 13.2034 119.543L13.2033 119.543C13.1914 118.698 13.2884 117.856 13.492 117.036L13.4922 117.036Z" fill="#E6E6E6"/>
<path d="M189.897 122.806C190.049 122.813 190.201 122.773 190.33 122.691C190.459 122.609 190.56 122.49 190.619 122.349C190.678 122.208 190.692 122.053 190.659 121.904C190.627 121.754 190.549 121.619 190.437 121.515C190.418 121.441 190.405 121.387 190.386 121.312C190.393 121.296 190.399 121.28 190.406 121.264C190.56 120.901 190.818 120.592 191.147 120.374C191.476 120.157 191.863 120.042 192.257 120.044C192.652 120.045 193.037 120.163 193.365 120.383C193.692 120.602 193.948 120.913 194.099 121.277C194.703 122.73 195.472 124.185 195.661 125.721C195.745 126.4 195.71 127.089 195.557 127.755C196.976 124.665 197.713 121.306 197.717 117.907C197.718 117.054 197.67 116.201 197.575 115.354C197.497 114.659 197.388 113.968 197.248 113.283C196.488 109.566 194.856 106.082 192.485 103.117C191.338 102.492 190.41 101.53 189.827 100.362C189.615 99.9424 189.466 99.4942 189.383 99.0316C189.512 99.0486 189.644 99.0591 189.773 99.0676C189.814 99.0697 189.856 99.0719 189.897 99.074L189.912 99.0747C190.054 99.081 190.195 99.0462 190.318 98.9744C190.441 98.9026 190.54 98.7968 190.604 98.6698C190.668 98.5428 190.694 98.4001 190.679 98.2587C190.664 98.1173 190.608 97.9834 190.518 97.873C190.462 97.8043 190.407 97.7356 190.351 97.667C190.266 97.5611 190.179 97.4572 190.094 97.3513C190.084 97.3412 190.075 97.3306 190.066 97.3195C189.969 97.1987 189.871 97.0801 189.773 96.9593C189.952 96.6831 190.191 96.4518 190.474 96.2834C191.452 95.7113 192.801 96.1075 193.508 96.9911C194.216 97.8747 194.35 99.1142 194.104 100.218C193.862 101.158 193.462 102.049 192.92 102.854C192.973 102.922 193.028 102.988 193.081 103.055C194.051 104.301 194.896 105.638 195.605 107.047C195.432 105.468 195.638 103.87 196.205 102.386C196.779 101.002 197.855 99.8371 198.803 98.641C199.942 97.2043 202.277 97.8313 202.477 99.6525C202.479 99.6701 202.481 99.6878 202.483 99.7054C202.342 99.7847 202.204 99.8689 202.069 99.958C201.9 100.071 201.769 100.233 201.693 100.421C201.617 100.61 201.6 100.817 201.644 101.016C201.688 101.215 201.791 101.395 201.94 101.535C202.088 101.674 202.276 101.765 202.477 101.796L202.498 101.799C202.448 102.306 202.359 102.808 202.232 103.301C201.866 104.678 201.219 105.965 200.331 107.081C199.444 108.197 198.335 109.117 197.074 109.785C196.992 109.827 196.911 109.87 196.828 109.91C197.54 111.925 197.987 114.023 198.157 116.152C198.253 117.409 198.247 118.671 198.14 119.926L198.146 119.882C198.418 118.486 199.163 117.226 200.257 116.315C201.882 114.983 204.177 114.492 205.93 113.421C206.116 113.301 206.333 113.237 206.554 113.237C206.775 113.236 206.992 113.299 207.179 113.418C207.366 113.536 207.515 113.705 207.609 113.906C207.702 114.106 207.736 114.329 207.707 114.548C207.705 114.564 207.703 114.579 207.7 114.595C207.439 114.701 207.185 114.824 206.938 114.961C206.798 115.041 206.66 115.125 206.525 115.214C206.356 115.327 206.224 115.489 206.148 115.677C206.073 115.866 206.055 116.074 206.1 116.272C206.144 116.471 206.247 116.652 206.395 116.791C206.544 116.93 206.731 117.021 206.933 117.052L206.953 117.055C206.968 117.057 206.981 117.059 206.996 117.061C206.549 118.126 205.923 119.106 205.143 119.958C204.181 120.989 203.017 121.814 201.724 122.38C200.431 122.947 199.036 123.244 197.624 123.253H197.622C197.239 124.916 196.683 126.535 195.965 128.084H190.045C190.024 128.018 190.005 127.95 189.986 127.885C190.534 127.919 191.084 127.886 191.624 127.787C191.184 127.249 190.745 126.707 190.306 126.168C190.296 126.158 190.287 126.148 190.278 126.137C190.056 125.861 189.831 125.588 189.608 125.312L189.608 125.312C189.596 124.468 189.693 123.625 189.897 122.806Z" fill="#E6E6E6"/>
<path d="M119.541 105.704C119.694 105.711 119.845 105.671 119.974 105.589C120.103 105.507 120.204 105.388 120.263 105.247C120.322 105.106 120.336 104.951 120.304 104.802C120.271 104.653 120.194 104.517 120.082 104.413C120.063 104.339 120.049 104.285 120.03 104.211C120.037 104.194 120.044 104.178 120.051 104.162C120.205 103.799 120.462 103.49 120.792 103.273C121.121 103.056 121.507 102.941 121.902 102.942C122.296 102.944 122.682 103.061 123.009 103.281C123.337 103.5 123.592 103.812 123.744 104.176C124.348 105.628 125.117 107.084 125.306 108.62C125.389 109.298 125.354 109.987 125.202 110.654C126.62 107.563 127.357 104.205 127.362 100.805C127.362 99.9519 127.315 99.0995 127.22 98.2517C127.141 97.5567 127.032 96.8666 126.893 96.1815C126.133 92.4642 124.5 88.98 122.13 86.015C120.982 85.3899 120.054 84.4285 119.471 83.2605C119.26 82.8406 119.11 82.3924 119.028 81.9298C119.157 81.9467 119.289 81.9573 119.418 81.9658C119.458 81.9679 119.501 81.97 119.541 81.9722L119.556 81.9728C119.698 81.9792 119.84 81.9444 119.962 81.8726C120.085 81.8008 120.185 81.695 120.249 81.568C120.313 81.441 120.339 81.2983 120.324 81.1569C120.308 81.0155 120.253 80.8816 120.163 80.7711C120.107 80.7025 120.051 80.6338 119.995 80.5652C119.91 80.4593 119.823 80.3554 119.738 80.2495C119.729 80.2394 119.719 80.2288 119.711 80.2177C119.613 80.0969 119.516 79.9783 119.418 79.8575C119.596 79.5813 119.836 79.35 120.118 79.1816C121.096 78.6095 122.446 79.0057 123.152 79.8893C123.861 80.7728 123.995 82.0124 123.749 83.1164C123.506 84.0557 123.106 84.9471 122.565 85.7523C122.618 85.8201 122.673 85.8858 122.726 85.9536C123.695 87.1988 124.541 88.5358 125.249 89.9456C125.077 88.3662 125.282 86.7686 125.849 85.284C126.423 83.9005 127.5 82.7353 128.448 81.5392C129.586 80.1025 131.921 80.7295 132.122 82.5507C132.124 82.5683 132.125 82.586 132.127 82.6036C131.987 82.6829 131.849 82.7671 131.714 82.8562C131.544 82.9692 131.413 83.1307 131.337 83.3195C131.261 83.5083 131.244 83.7156 131.288 83.9143C131.332 84.1129 131.436 84.2936 131.584 84.4327C131.733 84.5719 131.92 84.6629 132.122 84.6939L132.142 84.6971C132.092 85.2038 132.003 85.706 131.877 86.1994C131.511 87.5766 130.864 88.8634 129.976 89.9792C129.088 91.0949 127.98 92.0155 126.719 92.6832C126.636 92.7256 126.556 92.768 126.473 92.8083C127.185 94.8227 127.631 96.9211 127.801 99.0505C127.897 100.307 127.892 101.569 127.784 102.824L127.79 102.78C128.062 101.384 128.808 100.124 129.902 99.2137C131.526 97.8809 133.822 97.3901 135.574 96.3188C135.761 96.1994 135.977 96.1356 136.198 96.1351C136.42 96.1346 136.637 96.1972 136.824 96.3158C137.01 96.4343 137.159 96.6037 137.253 96.804C137.347 97.0044 137.381 97.2272 137.352 97.4464C137.35 97.462 137.347 97.4776 137.345 97.4931C137.083 97.5994 136.829 97.7218 136.583 97.8597C136.442 97.939 136.304 98.0232 136.17 98.1123C136 98.2253 135.869 98.3868 135.793 98.5756C135.717 98.7644 135.7 98.9717 135.744 99.1704C135.788 99.369 135.891 99.5498 136.04 99.6889C136.189 99.828 136.376 99.919 136.577 99.95L136.598 99.9532C136.613 99.9553 136.625 99.9574 136.64 99.9596C136.194 101.024 135.567 102.004 134.788 102.856C133.825 103.888 132.662 104.712 131.369 105.279C130.076 105.845 128.68 106.142 127.268 106.151H127.266C126.883 107.814 126.328 109.433 125.609 110.982H119.69C119.668 110.916 119.649 110.849 119.63 110.783C120.178 110.817 120.728 110.785 121.268 110.685C120.829 110.147 120.39 109.605 119.951 109.067C119.941 109.057 119.932 109.046 119.923 109.035C119.7 108.759 119.475 108.486 119.252 108.211L119.252 108.21C119.24 107.366 119.338 106.524 119.541 105.704L119.541 105.704Z" fill="#E6E6E6"/>
<path d="M81.9271 150.627L84.4042 149.891L82.7656 139.779L79.1094 140.864L81.9271 150.627Z" fill="#FFB6B6"/>
<path d="M66.7346 146.636C66.8855 146.767 67.0366 146.896 67.1894 147.026C67.4933 147.285 67.8011 147.542 68.1095 147.795C68.2645 147.922 68.4212 148.049 68.5765 148.174L68.5758 148.179L68.5856 148.182L68.5887 148.184L68.839 148.29L69.3693 147.362L69.6139 146.935L69.9596 146.33L70.5928 145.223L73.9272 139.396L70.4147 137.917L70.1891 138.455L70.1874 138.455L70.0758 138.721L67.9784 143.691L67.5502 144.708L67.5366 144.738L67.2791 145.345L67.057 145.871L66.8095 146.459L66.7346 146.636Z" fill="#FFB6B6"/>
<path d="M48.3825 121.416C48.5552 121.824 48.7334 122.232 48.9137 122.636C49.2487 123.389 49.597 124.133 49.9589 124.869C49.9586 124.87 49.9603 124.871 49.9617 124.873C50.1941 125.168 50.4602 125.435 50.7545 125.668C50.7664 125.68 50.7806 125.69 50.7928 125.7C51.01 125.869 51.2473 126.011 51.4992 126.122C51.5902 126.161 51.6828 126.199 51.7738 126.238C52.1026 126.373 52.4299 126.496 52.7569 126.61C53.3388 126.811 53.9198 126.982 54.4999 127.121C54.5464 127.134 54.5933 127.145 54.6401 127.156C57.0324 127.716 59.4339 127.803 61.9675 127.724C63.2184 127.686 64.5019 127.607 65.831 127.525C66.2655 127.497 66.7014 127.47 67.1424 127.445C67.1756 127.443 67.2108 127.44 67.2457 127.439C67.8758 127.402 68.5158 127.368 69.1707 127.338C69.995 127.3 70.844 127.272 71.7237 127.257L71.4718 128.452C71.2742 129.37 70.9365 130.253 70.4706 131.069C69.9359 132.079 69.5127 132.878 69.8445 134.733L70.0038 135.631C69.7841 136.029 69.66 136.473 69.6412 136.928C69.6223 137.382 69.7093 137.835 69.8951 138.251L69.9401 138.349L66.5023 144.162L66.2796 144.539L67.5363 144.738L69.082 144.984L71.7021 145.399L76.6838 138.422L76.9222 138.089L76.9251 138.071L78.8429 123.453C78.8582 123.324 78.8687 123.192 78.8722 123.061C78.8958 122.467 78.8007 121.874 78.5923 121.316C78.3839 120.759 78.0664 120.248 77.6583 119.815C77.2678 119.397 76.7979 119.06 76.2759 118.825C75.7539 118.589 75.1903 118.46 74.6178 118.444L73.2973 118.406L70.5994 118.329L68.6988 118.276L68.6608 118.276L63.0561 118.116L62.9165 116.449L62.8481 116.411L60.67 115.199L53.1371 111.006L53.1179 110.996L52.6224 110.721L52.5437 110.812C52.5203 110.84 52.4969 110.867 52.4751 110.895C51.8076 111.743 51.2285 112.658 50.747 113.624C49.9451 115.2 49.2338 116.82 48.6163 118.476C48.5893 118.548 48.5651 118.614 48.5436 118.673L48.5356 118.691C48.5259 118.718 48.5196 118.736 48.5171 118.741C48.2111 119.479 48.1912 120.435 48.3825 121.416Z" fill="#2F2E41"/>
<path d="M48.8958 115.998C48.9384 115.894 48.9879 115.789 49.0386 115.688C49.435 114.925 49.8732 114.184 50.3513 113.468C50.8898 112.653 51.5177 111.788 52.2493 110.86C52.6032 110.41 52.9811 109.944 53.383 109.461C53.5844 109.22 53.7927 108.974 54.008 108.724C54.0168 108.712 54.0261 108.701 54.0359 108.69L54.0978 108.617L61.8428 110.926L61.839 111.985L62.4007 113.486L62.3626 113.53C62.3643 113.53 62.3646 113.528 62.3626 113.53V113.324L62.569 113.53L64.5657 115.994L64.5795 115.994L69.0417 116.12L73.6402 116.25L76.1102 116.32C76.6828 116.336 77.2464 116.465 77.7684 116.701C78.2904 116.936 78.7604 117.273 79.1508 117.691C79.5587 118.125 79.8761 118.635 80.0845 119.193C80.2929 119.75 80.3881 120.343 80.3646 120.938C80.3611 121.058 80.3519 121.182 80.338 121.302L81.7644 127.067C82.6183 130.515 82.9462 134.072 82.7371 137.617L83.5637 143.229L83.3217 143.213L79.7208 142.981L78.7698 142.92L77.1833 139.586C77.0026 139.206 76.8353 138.817 76.6846 138.423C76.4357 137.778 76.2282 137.118 76.0633 136.447L73.282 125.133C72.9276 125.138 72.577 125.14 72.2302 125.14C70.6254 125.146 69.0906 125.115 67.6258 125.047C62.8628 124.829 58.8036 124.228 55.2659 123.215C54.2723 122.932 53.3186 122.615 52.405 122.264C52.0697 122.137 51.7399 122.004 51.4155 121.867C51.339 121.836 51.2641 121.805 51.1895 121.772C50.519 121.482 49.9322 121.028 49.4828 120.452C49.0334 119.876 48.7358 119.197 48.6171 118.477C48.4717 117.641 48.5684 116.781 48.8958 115.998Z" fill="#2F2E41"/>
<path d="M81.4404 148.941L84.1211 148.143L84.5416 148.017L84.923 149.646L89.1283 151.293C89.3363 151.374 89.5127 151.52 89.632 151.708C89.7512 151.897 89.807 152.118 89.7911 152.341C89.7752 152.563 89.6884 152.775 89.5436 152.945C89.3987 153.114 89.2033 153.233 88.9859 153.284L84.4533 154.346L83.2945 152.917L83.3675 154.6L81.6603 155L80.7888 149.136L81.4404 148.941Z" fill="#2F2E41"/>
<path d="M66.5024 144.162L66.2795 144.539L66.4386 144.564L66.5024 144.162Z" fill="#2F2E41"/>
<path d="M67.2926 144.787L69.76 146.103L70.1473 146.31L69.2705 147.735L71.0983 151.861C71.1889 152.064 71.2118 152.292 71.1636 152.51C71.1155 152.727 70.9989 152.924 70.8309 153.071C70.6629 153.218 70.4522 153.307 70.2297 153.326C70.0072 153.345 69.7845 153.292 69.5941 153.175L65.6256 150.745L65.8085 148.915L64.6749 150.162L63.1799 149.247L66.6924 144.468L67.2926 144.787Z" fill="#2F2E41"/>
<path d="M85.1228 69.7531C85.1465 70.0262 85.11 70.3011 85.0158 70.5585C84.9217 70.816 84.7721 71.0497 84.5777 71.2432C84.3834 71.4366 84.1489 71.5852 83.8908 71.6784C83.6327 71.7716 83.3572 71.8071 83.0839 71.7825L80.3397 77.8551L78.4868 74.929L81.3768 69.6109C81.4486 69.1551 81.6854 68.7414 82.0423 68.4483C82.3991 68.1551 82.8513 68.0029 83.313 68.0204C83.7748 68.0379 84.214 68.224 84.5476 68.5433C84.8811 68.8627 85.0858 69.2931 85.1228 69.7531Z" fill="#FFB6B6"/>
<path d="M78.1424 87.8183L65.5693 97.4256C64.5719 98.186 63.3131 98.5203 62.0692 98.355C60.8253 98.1897 59.6979 97.5384 58.9342 96.544C58.5121 95.993 58.2166 95.3559 58.0687 94.6779C57.9208 94 57.9242 93.2979 58.0785 92.6214C58.2329 91.945 58.5345 91.3107 58.962 90.7638C59.3894 90.2168 59.9322 89.7705 60.5518 89.4566L73.0863 83.1058L78.6937 72.1963L82.4588 73.3137L78.1424 87.8183Z" fill="black"/>
<path d="M51.3651 99.2316L51.1102 108.554C47.6023 114.472 47.2034 117.346 48.1744 118.879L62.5983 113.617L62.8414 113.037L63.5947 108.872L64.9602 104.574C65.2007 104.125 68.4651 101.366 65.405 96.1324L59.2488 87.8503L54.316 87.5684C53.5028 89.6527 54.9698 90.79 53.5046 91.2706C50.1914 94.3032 50.6781 94.7967 51.3651 99.2316Z" fill="black"/>
<path d="M41.5554 125.403C41.4437 125.153 41.3883 124.881 41.3931 124.607C41.398 124.333 41.4629 124.063 41.5834 123.817C41.7038 123.571 41.8769 123.354 42.0904 123.182C42.3039 123.009 42.5526 122.886 42.819 122.82L43.4274 116.186L46.1355 118.347L45.1425 124.316C45.2237 124.77 45.1351 125.239 44.8936 125.632C44.6522 126.025 44.2746 126.317 43.8324 126.451C43.3903 126.585 42.9142 126.552 42.4946 126.359C42.0749 126.166 41.7407 125.826 41.5554 125.403Z" fill="#FFB6B6"/>
<path d="M42.2468 106.052L50.9898 92.8715C51.684 91.8275 52.7645 91.1011 53.9943 90.8517C55.224 90.6024 56.5026 90.8503 57.5495 91.5413C58.1287 91.9245 58.6163 92.4303 58.9778 93.0229C59.3392 93.6154 59.5655 94.2801 59.6408 94.9699C59.716 95.6596 59.6383 96.3574 59.4131 97.0138C59.1879 97.6702 58.8208 98.269 58.3378 98.7677L48.5665 108.857L46.8332 120.997L42.9091 121.169L42.2468 106.052Z" fill="black"/>
<path d="M60.7767 76.2581C62.5208 79.6911 61.3815 83.6676 58.1451 85.7587C54.6453 88.0199 50.1014 87.5248 48.6317 83.1306C46.995 78.2372 48.3396 76.1379 51.2633 73.63C54.6897 70.691 58.8923 72.5489 60.7767 76.2581Z" fill="#2F2E41"/>
<path d="M52.1913 83.9056C53.0791 85.0675 54.3925 85.8298 55.8429 86.0252C57.2933 86.2206 58.762 85.833 59.9264 84.9476C61.0907 84.0621 61.8555 82.7513 62.0527 81.3031C62.2499 79.8549 61.8634 78.3878 60.978 77.224L60.9301 77.1612C60.0256 76.0305 58.7123 75.3003 57.2735 75.1279C55.8347 74.9555 54.3857 75.3549 53.2391 76.2398C52.0925 77.1248 51.3402 78.4244 51.1444 79.8582C50.9486 81.2921 51.3251 82.7454 52.1927 83.9046L52.1913 83.9056Z" fill="#FFB6B6"/>
<path d="M62.4669 75.7023C61.5694 76.5551 60.4756 77.174 59.2818 77.5046C59.0425 77.2281 58.7589 76.9934 58.4424 76.8099C58.5939 77.1246 58.6977 77.4601 58.7505 77.8053C58.2181 78.9087 56.0436 79.7018 53.9653 80.513L51.2126 75.6615L54.8562 73.5998C57.7838 71.5784 61.2304 72.4412 62.4669 75.7023Z" fill="#2F2E41"/>
<path d="M49.1363 73.6359C48.6405 73.4071 47.998 73.5484 47.5319 73.8699C47.0884 74.2066 46.7297 74.6423 46.4847 75.142C46.039 75.9506 45.7188 76.822 45.5351 77.7265C45.3779 78.5091 45.4045 79.4551 46.1076 79.8635C46.6942 80.2042 47.533 79.9897 48.0721 79.5349C48.6113 79.0802 48.9151 78.441 49.1781 77.8169C49.4411 77.1929 49.69 76.5458 50.1575 76.0276L49.6718 76.254C49.8253 75.7885 49.8969 75.3 49.8832 74.81C49.8721 74.5663 49.7973 74.3296 49.6663 74.1237C49.5353 73.9177 49.3526 73.7495 49.1363 73.6359Z" fill="#2F2E41"/>
<path d="M55.4379 74.2717L51.529 76.4836C50.472 77.0818 49.6963 78.0747 49.3724 79.244C49.0485 80.4133 49.203 81.6633 49.8019 82.7188C50.6743 84.2561 52.0894 85.4133 53.7706 85.9643C55.4518 86.5153 57.2783 86.4205 58.8932 85.6984L55.3213 82.5494L60.1668 85.0149L61.2014 84.4295C56.0047 83.4859 55.0022 79.415 55.4379 74.2717Z" fill="#2F2E41"/>
</g>
<defs>
<clipPath id="clip0_81_4186">
<rect width="210" height="155" fill="white" transform="translate(0.5)"/>
</clipPath>
</defs>
</svg>
